HIERARCHY
ROOT Hips
{
	OFFSET -0.001795 -0.223333 0.028219
	CHANNELS 6 Xposition Yposition Zposition Zrotation Yrotation Xrotation 
	JOINT LeftUpLeg
	{
		OFFSET 0.069520 -0.091406 -0.006815
		CHANNELS 3 Zrotation Yrotation Xrotation
		JOINT LeftLeg
		{
			OFFSET 0.034277 -0.375199 -0.004496
			CHANNELS 3 Zrotation Yrotation Xrotation
			JOINT LeftFoot
			{
				OFFSET -0.013596 -0.397961 -0.043693
				CHANNELS 3 Zrotation Yrotation Xrotation
				JOINT LeftToe
				{
					OFFSET 0.026358 -0.055791 0.119288
					CHANNELS 3 Zrotation Yrotation Xrotation
					End Site
					{
						OFFSET 0.000000 0.000000 0.000000
					}
				}
			}
		}
	}
	JOINT RightUpLeg
	{
		OFFSET -0.067670 -0.090522 -0.004320
		CHANNELS 3 Zrotation Yrotation Xrotation
		JOINT RightLeg
		{
			OFFSET -0.038290 -0.382569 -0.008850
			CHANNELS 3 Zrotation Yrotation Xrotation
			JOINT RightFoot
			{
				OFFSET 0.015774 -0.398415 -0.042312
				CHANNELS 3 Zrotation Yrotation Xrotation
				JOINT RightToe
				{
					OFFSET -0.025372 -0.048144 0.123348
					CHANNELS 3 Zrotation Yrotation Xrotation
					End Site
					{
						OFFSET 0.000000 0.000000 0.000000
					}
				}
			}
		}
	}
	JOINT Spine
	{
		OFFSET -0.002533 0.108963 -0.026696
		CHANNELS 3 Zrotation Yrotation Xrotation
		JOINT Spine1
		{
			OFFSET 0.005487 0.135180 0.001092
			CHANNELS 3 Zrotation Yrotation Xrotation
			JOINT Spine2
			{
				OFFSET 0.001457 0.052922 0.025425
				CHANNELS 3 Zrotation Yrotation Xrotation
				JOINT Neck
				{
					OFFSET -0.002778 0.213870 -0.042857
					CHANNELS 3 Zrotation Yrotation Xrotation
					JOINT Head
					{
						OFFSET 0.005152 0.064970 0.051349
						CHANNELS 3 Zrotation Yrotation Xrotation
						End Site
						{
							OFFSET 0.000000 0.000000 0.000000
						}
					}
				}
				JOINT LeftShoulder
				{
					OFFSET 0.078845 0.121749 -0.034090
					CHANNELS 3 Zrotation Yrotation Xrotation
					JOINT LeftArm
					{
						OFFSET 0.090977 0.030469 -0.008868
						CHANNELS 3 Zrotation Yrotation Xrotation
						JOINT LeftForeArm
						{
							OFFSET 0.259612 -0.012772 -0.027456
							CHANNELS 3 Zrotation Yrotation Xrotation
							JOINT LeftHand
							{
								OFFSET 0.249234 0.008986 -0.001171
								CHANNELS 3 Zrotation Yrotation Xrotation
								End Site
								{
									OFFSET 0.000000 0.000000 0.000000
								}
							}
						}
					}
				}
				JOINT RightShoulder
				{
					OFFSET -0.081759 0.118833 -0.038615
					CHANNELS 3 Zrotation Yrotation Xrotation
					JOINT RightArm
					{
						OFFSET -0.096012 0.032551 -0.009143
						CHANNELS 3 Zrotation Yrotation Xrotation
						JOINT RightForeArm
						{
							OFFSET -0.253742 -0.013329 -0.021401
							CHANNELS 3 Zrotation Yrotation Xrotation
							JOINT RightHand
							{
								OFFSET -0.255298 0.007772 -0.005559
								CHANNELS 3 Zrotation Yrotation Xrotation
								End Site
								{
									OFFSET 0.000000 0.000000 0.000000
								}
							}
						}
					}
				}
			}
		}
	}
}
MOTION
Frames: 13
Frame Time: 0.050000
0.000000 0.952645 0.000000 -0.927102 -2.235745 1.745558 6.061089 0.095422 4.009937 -3.961174 0.451318 -6.959240 4.443893 11.727494 12.805010 0.000000 0.000000 0.000000 -3.404970 -0.064062 2.530966 3.143253 -0.347067 -2.689196 -5.095791 -14.731716 12.206321 0.000000 0.000000 0.000000 -1.408826 -0.067646 3.082079 3.728508 -0.455005 -21.908640 -0.596486 1.346592 29.656116 0.019071 1.439556 -23.857692 0.000000 0.000000 0.000000 -24.061322 6.960839 -5.587355 -42.918839 -7.135265 -4.968173 7.252284 -18.892952 -0.144970 0.000000 0.000000 0.000000 15.726686 -1.444819 -1.522687 49.190737 5.347540 -5.202056 -9.038320 20.381356 -0.479339 0.000000 0.000000 0.000000 
-0.000175 0.952111 0.001355 -1.223881 -2.552418 1.972375 6.855359 0.065357 4.085179 -4.621174 0.488780 -7.436006 4.786818 12.235415 12.787679 0.000000 0.000000 0.000000 -2.935069 -0.052386 2.060423 2.856835 -0.318705 -2.370326 -5.374254 -15.311397 12.615392 0.000000 0.000000 0.000000 -1.402159 -0.050824 2.503923 4.005758 -0.562569 -21.447848 -0.688169 2.266790 29.737825 -0.479383 1.912996 -24.534655 0.000000 0.000000 0.000000 -24.985967 7.885874 -6.565979 -45.838656 -8.132831 -4.821169 7.024273 -18.378929 -0.096427 0.000000 0.000000 0.000000 16.796186 -1.669679 -1.558784 52.451876 3.835101 -6.146115 -10.846841 21.970496 -0.729064 0.000000 0.000000 0.000000 
-0.000275 0.951652 0.002725 -0.795661 -2.356602 1.888693 6.733138 0.042988 3.364727 -5.151414 0.530983 -5.476102 4.632251 11.923987 12.206723 0.000000 0.000000 0.000000 -3.734491 -0.044653 2.554451 3.281605 -0.359854 -3.051967 -5.315843 -15.167601 12.473950 0.000000 0.000000 0.000000 -1.184784 -0.054484 2.358009 3.086839 -0.305243 -21.660253 -0.823589 1.676716 30.007320 0.777460 1.011550 -23.812446 0.000000 0.000000 0.000000 -24.993948 7.002230 -5.842783 -48.195313 -6.310823 -5.756812 6.257166 -19.660314 0.060202 0.000000 0.000000 0.000000 17.506957 -1.182569 -1.466140 54.970526 2.462352 -6.973340 -8.818089 22.626849 -0.424006 0.000000 0.000000 0.000000 
-0.000399 0.951200 0.004320 -0.744947 -2.634472 1.748890 6.997224 0.059169 3.893766 -5.491794 0.556800 -5.610581 4.547740 11.737314 11.999294 0.000000 0.000000 0.000000 -3.687447 -0.070157 2.933136 3.225248 -0.354652 -3.122580 -5.271059 -15.197678 13.136108 0.000000 0.000000 0.000000 -1.527422 -0.035724 2.102881 3.339274 -0.372226 -21.735108 -0.849487 1.450949 30.506636 0.577752 1.057032 -23.743816 0.000000 0.000000 0.000000 -26.670638 7.944804 -6.605570 -49.316446 -5.777383 -6.117357 3.870569 -19.400637 0.471637 0.000000 0.000000 0.000000 18.023676 -0.542109 -1.242847 56.284148 1.197938 -7.740049 -6.819615 23.497160 -0.098502 0.000000 0.000000 0.000000 
-0.000456 0.951452 0.005732 -0.670620 -2.065310 1.598910 7.023442 0.052609 4.019282 -5.697241 0.564202 -5.507967 4.197011 11.215260 11.925506 0.000000 0.000000 0.000000 -3.569394 -0.113755 3.376688 2.653070 -0.324650 -3.586202 -5.371819 -15.360456 13.463785 0.000000 0.000000 0.000000 -1.800395 -0.031573 2.261046 3.634412 -0.433525 -21.817344 -0.967744 1.128789 30.090453 0.643057 0.987658 -23.139034 0.000000 0.000000 0.000000 -27.109839 7.735869 -6.577948 -51.031729 -4.806882 -6.629775 2.305746 -20.291051 0.767276 0.000000 0.000000 0.000000 18.084263 -0.592290 -1.275250 58.252242 0.118883 -8.430687 -5.135392 23.341455 0.212295 0.000000 0.000000 0.000000 
-0.000385 0.951565 0.006736 -0.598839 -1.874026 1.577800 6.953999 0.048087 3.902695 -5.628722 0.556877 -5.503723 4.163327 11.173748 11.902671 0.000000 0.000000 0.000000 -3.862040 -0.108845 3.545563 2.694760 -0.328227 -3.548073 -5.095021 -14.854956 13.431554 0.000000 0.000000 0.000000 -2.071208 -0.017423 2.039569 3.708625 -0.448547 -21.826593 -0.869431 0.546061 30.278615 0.466914 1.027868 -23.392743 0.000000 0.000000 0.000000 -27.279624 7.941442 -6.574313 -52.298370 -4.282983 -7.039415 -0.013646 -20.899202 1.229923 0.000000 0.000000 0.000000 17.820344 -0.211460 -1.154886 59.544669 -0.217422 -8.778339 -2.736500 23.475936 0.630307 0.000000 0.000000 0.000000 
-0.000219 0.951469 0.007222 -0.566371 -1.748846 1.403628 7.006887 0.053398 4.125462 -5.876582 0.574119 -5.360666 4.029574 10.964169 11.856592 0.000000 0.000000 0.000000 -3.715334 -0.128435 3.659127 2.547874 -0.317026 -3.429695 -5.070970 -14.815899 13.537633 0.000000 0.000000 0.000000 -2.219767 -0.015394 2.105766 3.958213 -0.530856 -21.528258 -0.994266 0.178363 29.874735 0.198060 1.147374 -23.367421 0.000000 0.000000 0.000000 -27.648811 7.510982 -6.255822 -52.834292 -3.921603 -7.244713 -1.286593 -21.444935 1.505918 0.000000 0.000000 0.000000 17.824309 0.613739 -0.793404 60.025077 -0.570052 -8.968102 -1.841960 23.563298 0.774012 0.000000 0.000000 0.000000 
-0.000054 0.951374 0.007423 -0.628231 -1.795812 1.390789 6.993888 0.050024 3.970722 -5.794906 0.574169 -5.048494 4.276635 11.301835 11.524116 0.000000 0.000000 0.000000 -3.683718 -0.115109 3.430399 2.647663 -0.315331 -2.880680 -4.949382 -14.545840 13.063482 0.000000 0.000000 0.000000 -2.192316 -0.013781 1.984762 4.002752 -0.543507 -21.531794 -0.894317 0.194918 30.101558 0.257932 1.104655 -23.331583 0.000000 0.000000 0.000000 -27.855652 6.861963 -5.833334 -52.978381 -4.123760 -7.214315 -2.485743 -21.758131 1.753135 0.000000 0.000000 0.000000 17.882952 0.832172 -0.675363 60.173082 -0.341038 -8.899169 -0.784467 23.371372 0.959254 0.000000 0.000000 0.000000 
0.000042 0.951341 0.007445 -0.713177 -1.907722 1.369395 7.164564 0.045719 3.987662 -5.911699 0.584695 -5.012020 4.315181 11.353530 11.512809 0.000000 0.000000 0.000000 -3.644941 -0.121513 3.506555 2.778390 -0.324902 -2.904415 -4.823282 -14.348957 13.176429 0.000000 0.000000 0.000000 -2.200340 -0.011749 1.895601 4.193634 -0.614628 -21.250460 -0.863140 0.213910 29.854578 0.114169 1.178094 -23.111498 0.000000 0.000000 0.000000 -27.943596 6.543485 -5.622501 -53.057904 -4.400833 -7.089892 -3.615920 -22.240720 2.010549 0.000000 0.000000 0.000000 17.846110 1.240884 -0.475123 59.909663 -0.445532 -8.884648 -0.048585 23.262380 1.073174 0.000000 0.000000 0.000000 
-0.000043 0.951216 0.007325 -0.735896 -2.128572 1.439390 7.123100 0.051600 4.000455 -5.873218 0.582813 -5.157830 4.483871 11.586709 11.380770 0.000000 0.000000 0.000000 -3.717028 -0.119014 3.586516 3.002794 -0.340448 -2.932825 -4.722533 -14.162695 12.980859 0.000000 0.000000 0.000000 -2.198705 -0.004920 1.607214 4.191018 -0.634832 -20.991355 -0.758804 0.422215 29.896430 0.087886 1.204331 -23.020458 0.000000 0.000000 0.000000 -28.193401 5.874674 -5.238252 -52.622374 -4.682909 -6.924374 -4.657033 -22.745428 2.251889 0.000000 0.000000 0.000000 18.114020 1.846627 -0.151987 59.624218 -0.218497 -8.730592 0.348776 23.219274 1.137375 0.000000 0.000000 0.000000 
-0.000275 0.951137 0.007053 -0.716995 -2.310523 1.428908 7.178277 0.056224 4.089140 -5.838904 0.580127 -5.335574 4.518937 11.659238 11.584080 0.000000 0.000000 0.000000 -3.793017 -0.121086 3.729147 3.152891 -0.352272 -3.121159 -4.746643 -14.253671 13.202839 0.000000 0.000000 0.000000 -2.315193 -0.000887 1.577037 4.284421 -0.670071 -20.890301 -0.745855 0.488858 29.711183 -0.009996 1.256025 -22.913653 0.000000 0.000000 0.000000 -28.359008 5.385076 -4.921553 -52.116574 -4.965060 -6.746359 -5.315445 -23.214994 2.426886 0.000000 0.000000 0.000000 18.162333 2.312742 0.077892 59.649086 -0.010556 -8.610717 0.640032 23.288529 1.187423 0.000000 0.000000 0.000000 
-0.000604 0.951067 0.006633 -0.739459 -2.522826 1.518168 7.152572 0.056933 3.979198 -5.779617 0.578836 -5.350120 4.687673 11.905631 11.531308 0.000000 0.000000 0.000000 -3.853127 -0.105495 3.596620 3.317008 -0.362136 -3.090329 -4.682772 -14.150648 13.123727 0.000000 0.000000 0.000000 -2.331082 0.002092 1.496996 4.292273 -0.685238 -20.749081 -0.698360 0.552866 29.509189 -0.075757 1.294660 -23.017522 0.000000 0.000000 0.000000 -28.321471 5.020320 -4.654413 -51.865147 -5.376891 -6.536126 -6.059924 -23.353618 2.586797 0.000000 0.000000 0.000000 18.147247 2.614925 0.215783 59.697622 0.280938 -8.445683 0.618799 23.508900 1.190771 0.000000 0.000000 0.000000 
-0.000924 0.951185 0.006134 -0.745573 -2.705218 1.551353 7.101945 0.062384 3.974879 -5.705892 0.574577 -5.475455 4.772746 12.031023 11.551507 0.000000 0.000000 0.000000 -3.842905 -0.095863 3.473336 3.386707 -0.364996 -3.024362 -4.730109 -14.264861 13.214659 0.000000 0.000000 0.000000 -2.390337 0.004426 1.488872 4.347502 -0.709044 -20.667410 -0.689697 0.644846 29.420560 -0.198114 1.371861 -23.044808 0.000000 0.000000 0.000000 -28.375782 4.507702 -4.311769 -51.454019 -5.693149 -6.366164 -6.483367 -23.492570 2.680727 0.000000 0.000000 0.000000 18.173015 2.903958 0.360365 59.780325 0.591846 -8.293526 0.587314 23.926693 1.209547 0.000000 0.000000 0.000000 
